<mxfile host="app.diagrams.net" modified="2021-10-03T08:52:07.603Z" agent="5.0 (iPad; CPU OS 14_7 like Mac OS X) AppleWebKit/605.1.15 (KHTML, like Gecko) CriOS/94.0.4606.52 Mobile/15E148 Safari/604.1" etag="laWqlwItW8NBPHDEwHAN" version="15.4.1" type="github">
  <diagram id="3QV9_hcIIDeoqv7qtw3V" name="Page-1">
    <mxGraphModel dx="526" dy="478" grid="1" gridSize="10" guides="1" tooltips="1" connect="1" arrows="1" fold="1" page="1" pageScale="1" pageWidth="850" pageHeight="1100" math="0" shadow="0">
      <root>
        <mxCell id="0" />
        <mxCell id="1" parent="0" />
        <mxCell id="oT7PRsjjd8P3oZxAkPHZ-1" value="Red" style="rounded=0;whiteSpace=wrap;html=1;fillColor=#f8cecc;strokeColor=#b85450;" vertex="1" parent="1">
          <mxGeometry x="40" y="90" width="130" height="60" as="geometry" />
        </mxCell>
        <mxCell id="oT7PRsjjd8P3oZxAkPHZ-2" value="Green" style="rounded=0;whiteSpace=wrap;html=1;fillColor=#d5e8d4;strokeColor=#82b366;" vertex="1" parent="1">
          <mxGeometry x="210" y="90" width="120" height="60" as="geometry" />
        </mxCell>
        <mxCell id="oT7PRsjjd8P3oZxAkPHZ-3" value="Blue" style="rounded=0;whiteSpace=wrap;html=1;fillColor=#dae8fc;strokeColor=#6c8ebf;" vertex="1" parent="1">
          <mxGeometry x="365" y="90" width="120" height="60" as="geometry" />
        </mxCell>
      </root>
    </mxGraphModel>
  </diagram>
</mxfile>
